<svg aria-hidden="true" style="position: absolute; width: 0; height: 0; overflow: hidden;" version="1.1" xmlns="http://www.w3.org/2000/svg" xmlns:xlink="http://www.w3.org/1999/xlink">
<defs>
<symbol id="icon-paper-plane" viewBox="0 0 28 28">
<path d="M27.563 0.172c0.328 0.234 0.484 0.609 0.422 1l-4 24c-0.047 0.297-0.234 0.547-0.5 0.703-0.141 0.078-0.313 0.125-0.484 0.125-0.125 0-0.25-0.031-0.375-0.078l-7.078-2.891-3.781 4.609c-0.187 0.234-0.469 0.359-0.766 0.359-0.109 0-0.234-0.016-0.344-0.063-0.391-0.141-0.656-0.516-0.656-0.938v-5.453l13.5-16.547-16.703 14.453-6.172-2.531c-0.359-0.141-0.594-0.469-0.625-0.859-0.016-0.375 0.172-0.734 0.5-0.922l26-15c0.156-0.094 0.328-0.141 0.5-0.141 0.203 0 0.406 0.063 0.562 0.172z"></path>
</symbol>
<symbol id="icon-envelope" viewBox="0 0 28 28">
<path d="M28 11.094v12.406c0 1.375-1.125 2.5-2.5 2.5h-23c-1.375 0-2.5-1.125-2.5-2.5v-12.406c0.469 0.516 1 0.969 1.578 1.359 2.594 1.766 5.219 3.531 7.766 5.391 1.313 0.969 2.938 2.156 4.641 2.156h0.031c1.703 0 3.328-1.188 4.641-2.156 2.547-1.844 5.172-3.625 7.781-5.391 0.562-0.391 1.094-0.844 1.563-1.359zM28 6.5c0 1.75-1.297 3.328-2.672 4.281-2.438 1.687-4.891 3.375-7.313 5.078-1.016 0.703-2.734 2.141-4 2.141h-0.031c-1.266 0-2.984-1.437-4-2.141-2.422-1.703-4.875-3.391-7.297-5.078-1.109-0.75-2.688-2.516-2.688-3.938 0-1.531 0.828-2.844 2.5-2.844h23c1.359 0 2.5 1.125 2.5 2.5z"></path>
</symbol>
<symbol id="icon-paperplane" viewBox="0 0 32 32">
<path d="M31.543 0.16c-0.166-0.107-0.355-0.16-0.543-0.16-0.193 0-0.387 0.055-0.555 0.168l-30 20c-0.309 0.205-0.479 0.566-0.439 0.936 0.038 0.369 0.278 0.688 0.623 0.824l7.824 3.131 3.679 6.438c0.176 0.309 0.503 0.5 0.857 0.504 0.004 0 0.007 0 0.011 0 0.351 0 0.677-0.186 0.857-0.486l2.077-3.463 9.695 3.877c0.119 0.048 0.244 0.071 0.371 0.071 0.17 0 0.338-0.043 0.49-0.129 0.264-0.148 0.445-0.408 0.496-0.707l5-30c0.065-0.393-0.109-0.787-0.443-1.004zM3.136 20.777l23.175-15.451-16.85 18.037c-0.089-0.053-0.168-0.123-0.266-0.162l-6.059-2.424zM10.189 24.066c-0.002-0.004-0.005-0.006-0.007-0.010l18.943-20.275-16.149 25.162-2.787-4.877zM25.217 29.609l-8.541-3.416c-0.203-0.080-0.414-0.107-0.623-0.119l13.152-20.388-3.988 23.923z"></path>
</symbol>
<symbol id="icon-phone" viewBox="0 0 32 32">
<path d="M22 20c-2 2-2 4-4 4s-4-2-6-4-4-4-4-6 2-2 4-4-4-8-6-8-6 6-6 6c0 4 4.109 12.109 8 16s12 8 16 8c0 0 6-4 6-6s-6-8-8-6z"></path>
</symbol>
<symbol id="icon-user" viewBox="0 0 32 32">
<path d="M18 22.082v-1.649c2.203-1.241 4-4.337 4-7.432 0-4.971 0-9-6-9s-6 4.029-6 9c0 3.096 1.797 6.191 4 7.432v1.649c-6.784 0.555-12 3.888-12 7.918h28c0-4.030-5.216-7.364-12-7.918z"></path>
</symbol>
<symbol id="icon-checkbox-checked" viewBox="0 0 32 32">
<path d="M28 0h-24c-2.2 0-4 1.8-4 4v24c0 2.2 1.8 4 4 4h24c2.2 0 4-1.8 4-4v-24c0-2.2-1.8-4-4-4zM14 24.828l-7.414-7.414 2.828-2.828 4.586 4.586 9.586-9.586 2.828 2.828-12.414 12.414z"></path>
</symbol>
<symbol id="icon-checkbox-unchecked" viewBox="0 0 32 32">
<path d="M28 0h-24c-2.2 0-4 1.8-4 4v24c0 2.2 1.8 4 4 4h24c2.2 0 4-1.8 4-4v-24c0-2.2-1.8-4-4-4zM28 28h-24v-24h24v24z"></path>
</symbol>
</defs>
</svg>
